<?xml version="1.0"?>
<svg xmlns="http://www.w3.org/2000/svg" viewBox="0 0 64 64" width="512" height="512"><g id="Outlines"><g><path d="M58,49a1,1,0,0,0-1,1v9H27V36a1,1,0,0,0-1-1H10a1,1,0,0,0-1,1V59H7V45a1,1,0,0,0-2,0V60a1,1,0,0,0,1,1H58a1,1,0,0,0,1-1V50A1,1,0,0,0,58,49ZM25,51H19V49h1a1,1,0,0,0,0-2H19V37h6ZM17,37V47H16a1,1,0,0,0,0,2h1v2H11V37ZM11,53h6v6H11Zm8,6V53h6v6Z"/><path d="M60.885,20.557l.01,0-3-6A1,1,0,0,0,57,14H52V5a1,1,0,0,0-2,0V17a3,3,0,0,1-3,3H36.608a16.941,16.941,0,0,1,5.467-1.5L47.1,18a1,1,0,0,0,.9-1V3a1,1,0,0,0-1.1-1l-5.024.5A18.934,18.934,0,0,0,33,5.781a18.934,18.934,0,0,0-8.876-3.274l-5.024-.5a1.013,1.013,0,0,0-.771.254A1,1,0,0,0,18,3V4H15a1,1,0,0,0-1,1V17a4.948,4.948,0,0,0,1.026,3H5.618l2-4H11a1,1,0,0,0,0-2H7a1,1,0,0,0-.895.553l-3,6A1,1,0,0,0,4,22H59v2H4a1,1,0,0,0-1,1v2a4.977,4.977,0,0,0,2,3.974V41a1,1,0,0,0,2,0V31.9a4.962,4.962,0,0,0,5-1.93,4.954,4.954,0,0,0,8,0,4.954,4.954,0,0,0,8,0,4.954,4.954,0,0,0,8,0A4.982,4.982,0,0,0,40,32a1,1,0,0,0,0-2,3,3,0,0,1-3-3V26h6v1a4.985,4.985,0,0,0,9,2.969,4.962,4.962,0,0,0,5,1.93V46a1,1,0,0,0,2,0V30.974A4.977,4.977,0,0,0,61,27V21A.978.978,0,0,0,60.885,20.557ZM52,17V16h4.382l2,4H50.974A4.948,4.948,0,0,0,52,17ZM42.075,4.5,46,4.105V16.1l-4.124.412A18.951,18.951,0,0,0,34,19.123V7.509A16.945,16.945,0,0,1,42.075,4.5ZM20,4.105l3.925.393A16.945,16.945,0,0,1,32,7.509V19.123a18.951,18.951,0,0,0-7.876-2.616L20,16.1ZM16,17V6h2V17a1,1,0,0,0,.9,1l5.025.5A16.941,16.941,0,0,1,29.392,20H19A3,3,0,0,1,16,17ZM8,30a3,3,0,0,1-3-3V26h6v1A3,3,0,0,1,8,30Zm8,0a3,3,0,0,1-3-3V26h6v1A3,3,0,0,1,16,30Zm8,0a3,3,0,0,1-3-3V26h6v1A3,3,0,0,1,24,30Zm8,0a3,3,0,0,1-3-3V26h6v1A3,3,0,0,1,32,30Zm16,0a3,3,0,0,1-3-3V26h6v1A3,3,0,0,1,48,30Zm11-3a3,3,0,0,1-6,0V26h6Z"/><path d="M37,11.18a1,1,0,0,0,.432-.1A16.88,16.88,0,0,1,43.075,9.5a1,1,0,0,0-.2-1.991,18.907,18.907,0,0,0-6.31,1.771A1,1,0,0,0,37,11.18Z"/><path d="M37,15.18a1,1,0,0,0,.432-.1A16.88,16.88,0,0,1,43.075,13.5a1,1,0,0,0-.2-1.991,18.907,18.907,0,0,0-6.31,1.771A1,1,0,0,0,37,15.18Z"/><path d="M22.925,9.5a16.88,16.88,0,0,1,5.643,1.583,1,1,0,0,0,.866-1.8,18.907,18.907,0,0,0-6.31-1.771,1,1,0,0,0-.2,1.991Z"/><path d="M29,15.18a1,1,0,0,0,.434-1.9,18.907,18.907,0,0,0-6.31-1.771,1,1,0,0,0-.2,1.991,16.88,16.88,0,0,1,5.643,1.583A1,1,0,0,0,29,15.18Z"/><circle cx="14" cy="56" r="1"/><circle cx="22" cy="56" r="1"/><path d="M33.293,41.707a1,1,0,0,0,1.414,0L39.414,37H44a1,1,0,0,0,0-2H30a1,1,0,0,0-1,1V52a1,1,0,0,0,1,1H54a1,1,0,0,0,1-1V36a1,1,0,0,0-1-1H48a1,1,0,0,0,0,2h5v8H49V41a1,1,0,0,0-1-1H44a1,1,0,0,0-1,1v2H38a1,1,0,0,0-1,1v1H34a1,1,0,0,0-1,1v5H31V37h5.586l-3.293,3.293A1,1,0,0,0,33.293,41.707ZM39,49h4v2H39Zm8-1H45V46h2Zm-2,2h2v1H45Zm8-3v1H52a1,1,0,0,0,0,2h1v1H49V47Zm-8-5h2v2H45Zm-6,3h4v2H39Zm-4,2h2v4H35Z"/></g></g></svg>
